<?xml version="1.0" standalone="no"?>
<!DOCTYPE svg PUBLIC "-//W3C//DTD SVG 20010904//EN"
 "http://www.w3.org/TR/2001/REC-SVG-20010904/DTD/svg10.dtd">
<svg version="1.0" xmlns="http://www.w3.org/2000/svg"
 width="250.000000pt" height="250.000000pt" viewBox="0 0 250.000000 250.000000"
 preserveAspectRatio="xMidYMid meet">
<metadata>
Created by potrace 1.11, written by Peter Selinger 2001-2013
</metadata>
<g transform="translate(0.000000,250.000000) scale(0.100000,-0.100000)"
fill="#000000" stroke="none">
<path d="M1115 2410 c-102 -8 -171 -21 -236 -45 -24 -9 -58 -21 -76 -26 -50
-15 -174 -101 -253 -175 -64 -60 -158 -170 -197 -230 -48 -73 -94 -187 -125
-309 -12 -44 -26 -91 -32 -104 -7 -15 -11 -94 -11 -208 1 -138 -2 -183 -11
-183 -19 0 -73 -49 -90 -82 -8 -16 -16 -50 -16 -76 -1 -57 31 -110 118 -191
73 -67 139 -98 227 -105 63 -5 71 -9 127 -55 32 -27 68 -52 80 -56 11 -3 20
-11 20 -16 0 -5 7 -9 15 -9 8 0 50 -19 93 -41 77 -41 79 -42 61 -60 -23 -23
-23 -27 -4 -73 14 -33 14 -41 -3 -88 -24 -72 -24 -72 -94 -108 -35 -18 -75
-41 -90 -51 -14 -11 -48 -29 -75 -42 -54 -26 -123 -67 -123 -73 0 -2 44 -4 99
-4 85 0 99 2 103 18 5 15 215 142 237 142 5 0 20 9 33 20 32 28 148 103 153
99 2 -2 -3 -51 -11 -109 -7 -58 -14 -120 -14 -137 l0 -33 75 0 75 0 0 29 c0
16 3 42 6 58 8 38 -26 84 -48 65 -22 -18 -26 -6 -15 41 20 88 21 88 61 10 20
-40 40 -73 44 -73 10 0 40 38 146 183 15 21 30 36 33 33 6 -5 -19 -94 -47
-171 -16 -43 -20 -47 -26 -27 -4 13 -14 22 -26 22 -23 0 -44 -46 -54 -118 l-7
-52 75 0 75 0 18 68 c49 189 92 318 94 283 1 -7 12 -35 26 -63 16 -32 25 -66
25 -97 0 -26 9 -72 20 -104 11 -31 20 -63 20 -72 0 -12 18 -15 105 -15 58 0
105 4 105 8 0 4 -26 13 -59 20 -50 11 -62 18 -85 50 -38 56 -44 96 -15 116 36
25 57 19 106 -28 72 -71 125 -69 141 7 5 23 13 41 18 40 5 -1 57 -24 117 -53
113 -54 120 -62 92 -110 -23 -41 -19 -50 26 -50 36 0 41 3 50 30 11 30 24 35
67 23 18 -4 23 -11 19 -29 l-4 -24 114 0 c113 0 114 0 111 22 -2 19 -21 30
-93 60 -49 20 -112 44 -140 53 -68 23 -324 148 -325 158 0 5 9 20 20 34 11 14
20 32 20 39 0 22 -42 54 -90 68 l-45 13 -3 78 c-2 67 -5 78 -22 82 -11 3 -20
8 -20 12 1 3 29 27 63 52 58 44 67 47 137 51 97 7 169 33 263 97 99 66 127
111 127 203 0 36 -5 80 -11 99 -17 50 -57 99 -90 111 -34 12 -37 36 -14 125
37 142 6 318 -93 533 -19 40 -87 141 -147 216 -55 70 -173 165 -227 183 -25 9
-52 21 -59 27 -31 25 -152 64 -240 78 -119 18 -278 25 -394 16z m428 -104 c55
-10 115 -33 201 -75 113 -55 129 -67 202 -144 68 -73 89 -103 151 -230 67
-134 75 -155 94 -269 13 -77 19 -143 15 -178 -5 -53 -73 -241 -94 -262 -13
-13 -21 54 -25 230 -5 179 -26 200 -68 67 l-15 -50 -8 95 c-13 182 -52 353
-103 453 -28 55 -67 28 -128 -90 -20 -40 -41 -73 -45 -73 -12 0 -231 232 -243
257 -12 28 -43 39 -62 23 -15 -12 -76 -121 -139 -247 -20 -40 -41 -73 -46 -73
-22 0 -128 190 -163 293 -6 17 -34 23 -52 9 -11 -8 -21 -25 -103 -180 -59
-113 -68 -117 -95 -39 -8 23 -32 76 -54 117 -32 62 -43 76 -66 78 -37 4 -57
-32 -98 -174 -18 -63 -36 -114 -39 -114 -4 0 -16 24 -29 54 -22 54 -39 70 -63
60 -14 -5 -68 -126 -93 -204 -33 -105 -73 -212 -84 -223 -8 -8 -11 2 -11 41 0
178 114 429 271 594 50 52 208 178 224 178 4 0 35 13 69 29 56 27 162 55 246
65 71 8 377 -4 453 -18z m-69 -391 c15 -19 75 -82 134 -140 83 -82 112 -105
133 -105 32 0 37 6 65 80 26 68 46 71 56 10 4 -25 16 -85 27 -135 11 -49 25
-162 32 -250 11 -159 27 -222 52 -212 51 21 48 27 41 -84 -6 -94 -9 -109 -40
-162 -19 -32 -34 -62 -34 -66 0 -15 -130 -131 -207 -185 -68 -47 -136 -83
-269 -142 -24 -10 -140 -136 -193 -208 -18 -25 -36 -46 -40 -46 -4 0 -20 24
-36 54 -29 53 -29 55 -13 89 9 18 13 39 9 46 -4 6 -54 19 -112 27 -228 34
-349 94 -509 254 -150 150 -166 177 -237 394 -23 69 -25 84 -15 122 6 23 23
59 37 80 23 34 35 66 96 267 24 79 33 91 44 58 11 -36 46 -71 70 -71 38 0 58
39 101 198 8 30 21 66 28 80 14 25 15 26 22 7 30 -83 86 -185 113 -208 53 -44
68 -36 100 54 18 51 45 110 78 172 12 23 17 26 29 16 8 -6 14 -15 14 -19 0
-11 93 -164 103 -168 4 -2 7 -8 7 -14 0 -5 12 -25 26 -44 39 -50 73 -47 102 9
12 23 26 49 31 57 5 8 31 61 57 117 27 57 54 103 60 103 7 0 24 -16 38 -35z
m781 -751 c28 -11 55 -79 55 -138 0 -48 -4 -60 -32 -92 -35 -40 -89 -77 -128
-89 -23 -7 -24 -6 -6 7 15 12 17 20 9 44 -8 24 -16 30 -46 32 -20 2 -37 7 -37
11 0 4 23 34 51 66 28 33 56 71 63 85 12 27 46 80 51 80 2 0 11 -3 20 -6z
m-2025 -114 c0 -6 8 -23 19 -38 94 -138 95 -141 78 -160 -10 -10 -17 -26 -17
-35 0 -9 -2 -17 -5 -17 -20 0 -61 32 -105 82 -50 57 -52 61 -45 104 5 34 12
47 33 59 33 17 42 18 42 5z m1830 -178 c0 -11 12 -24 26 -31 32 -14 29 -19
-16 -25 -19 -2 -43 -7 -52 -11 -23 -9 -23 -5 4 44 23 44 38 53 38 23z m-1655
-112 c-8 -12 -55 -13 -55 -1 0 5 10 15 23 24 19 12 23 13 30 1 4 -8 5 -19 2
-24z m1357 -307 l3 -68 45 -14 c25 -8 47 -15 49 -18 3 -2 -8 -16 -23 -32 -20
-21 -26 -35 -21 -50 3 -12 3 -31 0 -42 -7 -20 -10 -18 -52 26 -36 37 -50 45
-67 40 -58 -18 -64 -17 -86 13 -12 16 -33 56 -47 88 -13 33 -27 64 -29 71 -4
7 8 14 33 18 21 3 63 12 93 19 99 25 99 26 102 -51z m-694 -42 c-5 -16 -141
-110 -150 -105 -4 3 -8 14 -8 24 0 10 -4 22 -10 25 -23 14 -7 35 38 49 53 17
135 21 130 7z"/>
<path d="M1475 1590 c-11 -4 -39 -25 -62 -45 -32 -27 -43 -44 -43 -65 0 -49
37 -47 121 6 33 20 51 25 80 21 67 -9 106 43 57 77 -24 17 -118 21 -153 6z"/>
<path d="M584 1479 c-27 -34 -35 -59 -24 -79 12 -22 58 -28 77 -9 7 7 26 3 63
-17 39 -20 57 -25 69 -17 28 17 25 58 -6 93 -25 27 -36 32 -98 37 -53 4 -73 2
-81 -8z"/>
<path d="M1615 1123 c-11 -3 -27 -11 -35 -17 -8 -7 -45 -27 -82 -45 -61 -29
-68 -35 -68 -61 0 -55 52 -49 179 19 73 40 100 73 81 96 -12 15 -36 17 -75 8z"/>
<path d="M563 1043 c-7 -2 -13 -15 -13 -27 0 -33 18 -50 86 -79 90 -39 134
-33 134 18 0 41 -158 108 -207 88z"/>
<path d="M1368 746 c-20 -19 -56 -40 -80 -47 -50 -13 -235 -6 -252 11 -5 5
-23 10 -38 10 -23 0 -28 -4 -28 -25 0 -19 10 -30 43 -46 36 -19 59 -23 157
-23 132 -1 181 10 242 57 34 26 43 40 43 63 0 44 -39 44 -87 0z"/>
<path d="M868 31 c-58 -27 -56 -31 15 -31 65 0 67 1 67 25 0 30 -26 32 -82 6z"/>
</g>
</svg>
