<?xml version="1.0" standalone="no"?>
<!DOCTYPE svg PUBLIC "-//W3C//DTD SVG 20010904//EN"
 "http://www.w3.org/TR/2001/REC-SVG-20010904/DTD/svg10.dtd">
<svg version="1.0" xmlns="http://www.w3.org/2000/svg"
 width="398.000000pt" height="398.000000pt" viewBox="0 0 398.000000 398.000000"
 preserveAspectRatio="xMidYMid meet">
<metadata>
Created by potrace 1.11, written by Peter Selinger 2001-2013
</metadata>
<g transform="translate(0.000000,398.000000) scale(0.100000,-0.100000)"
fill="#000000" stroke="none">
<path d="M1620 3386 c-71 -27 -197 -95 -257 -141 -100 -75 -164 -153 -232
-285 -60 -116 -100 -245 -101 -325 0 -28 -4 -32 -45 -43 -59 -16 -116 -74
-146 -148 -21 -51 -24 -76 -24 -189 0 -124 2 -134 33 -211 48 -120 106 -164
218 -164 53 0 59 -3 127 -58 40 -33 93 -73 119 -91 26 -17 53 -39 60 -49 15
-21 113 -110 147 -134 23 -16 23 -17 7 -66 -14 -42 -22 -50 -52 -60 -20 -6
-42 -8 -50 -5 -8 3 -97 -9 -197 -26 -100 -18 -196 -34 -213 -37 -43 -6 -93
-41 -127 -90 -35 -50 -47 -123 -47 -303 0 -74 -5 -175 -12 -225 l-11 -90 36
-30 c29 -24 37 -38 37 -63 0 -70 32 -258 50 -294 11 -20 33 -48 50 -61 l31
-24 -16 -70 c-9 -38 -18 -77 -21 -86 -5 -17 30 -18 642 -18 l647 0 -7 63 c-4
34 -10 73 -13 85 -5 22 -3 22 41 -12 56 -43 101 -52 171 -37 68 15 134 57 217
138 l67 66 31 -27 c51 -43 88 -58 145 -58 67 -1 128 27 198 92 63 58 99 125
128 240 37 147 12 318 -65 440 -19 30 -44 71 -55 92 -23 40 -96 82 -166 94
-22 3 -49 15 -61 26 -51 46 -151 30 -223 -36 -45 -42 -48 -43 -127 -49 l-80
-5 -24 45 c-33 63 -75 91 -213 144 -119 46 -120 46 -81 54 110 20 245 131 378
308 91 123 94 137 97 453 l2 269 38 70 c76 141 87 250 36 351 -14 28 -33 79
-42 115 -22 84 -53 136 -115 192 -59 53 -131 89 -213 108 -55 12 -56 13 -41
31 16 17 15 18 -34 18 -64 0 -134 14 -236 47 -95 31 -192 29 -250 -5 -27 -16
-42 -19 -63 -12 -16 4 -41 11 -57 15 l-29 6 33 28 c20 16 30 32 26 39 -9 15
-21 14 -66 -2z m673 -546 c51 -14 120 -67 141 -109 8 -14 17 -45 20 -67 l7
-41 -58 -7 c-116 -13 -193 -43 -193 -75 0 -4 51 -5 113 -3 110 4 147 -3 241
-43 17 -7 16 -1 -11 46 -25 44 -28 58 -19 74 6 11 12 21 13 23 1 2 11 -1 22
-8 20 -10 21 -18 20 -158 0 -98 -4 -138 -9 -118 -20 66 -92 100 -210 101 -87
0 -138 -20 -173 -69 -43 -60 -24 -202 30 -223 8 -3 54 1 102 11 47 9 105 16
129 16 65 0 109 22 121 62 7 24 9 -30 8 -192 -2 -223 -2 -226 -29 -280 -32
-64 -161 -225 -234 -289 -64 -57 -144 -94 -216 -99 -99 -7 -311 49 -450 119
-49 24 -171 109 -166 115 2 1 33 -8 69 -21 83 -30 181 -49 212 -41 14 3 30 18
37 35 14 35 -3 76 -47 111 -25 20 -36 22 -105 17 -70 -5 -83 -2 -135 23 -32
15 -89 50 -128 76 -62 44 -70 53 -73 85 -2 26 4 47 23 74 14 21 32 62 41 92
13 46 18 52 34 43 24 -13 26 -4 41 221 13 183 14 189 35 189 12 0 38 11 58 25
44 30 42 29 50 9 3 -9 -1 -25 -9 -37 -24 -35 -18 -37 33 -14 42 19 64 22 199
22 138 0 153 2 153 17 0 10 -8 22 -18 27 -23 12 -175 41 -218 41 l-34 0 24 49
c14 27 39 63 56 80 29 28 37 31 96 31 35 0 64 -1 64 -2 0 -2 -7 -21 -15 -43
-8 -22 -14 -57 -15 -77 l0 -38 50 0 c61 0 96 17 140 66 40 46 68 107 76 168
l7 46 27 -24 c15 -12 48 -29 73 -36z m-1198 -300 c16 -18 16 -20 1 -26 -23 -9
-20 -24 5 -24 22 0 48 -25 49 -47 0 -7 -7 -13 -15 -13 -20 0 -8 -27 16 -33 23
-6 27 -57 4 -57 -8 0 -15 -8 -15 -17 -1 -17 -2 -17 -13 -2 -7 9 -21 18 -32 21
-14 2 -20 11 -19 27 0 13 -8 33 -18 43 -10 10 -16 24 -12 31 3 7 -4 1 -15 -13
-15 -18 -21 -21 -21 -9 0 9 -9 24 -20 34 -11 10 -20 31 -20 47 0 20 -4 27 -12
22 -10 -5 -10 -4 -1 6 11 12 61 27 99 29 11 1 29 -8 39 -19z m173 -67 c56
-102 65 -285 20 -400 -21 -53 -26 -58 -60 -64 -21 -3 -40 -4 -42 -2 -2 2 5 27
16 56 44 114 33 332 -22 425 l-20 33 42 -3 c39 -3 45 -7 66 -45z m-284 -58
c29 -31 46 -97 45 -167 l-2 -53 -6 55 c-13 122 -88 158 -128 63 -29 -71 -5
-174 46 -200 31 -15 47 -41 33 -55 -13 -13 -48 -5 -45 10 2 6 -3 9 -11 6 -25
-10 -59 92 -59 176 0 89 15 142 50 170 34 26 49 25 77 -5z m1501 -19 c90 -38
100 -176 13 -176 -28 0 -29 1 -14 22 27 38 20 86 -15 119 -26 24 -40 29 -81
29 -41 0 -54 -5 -79 -29 -39 -39 -40 -93 -3 -132 l26 -27 -38 -11 c-55 -15
-61 -14 -80 14 -12 19 -15 40 -12 82 4 49 10 60 41 90 36 32 39 33 122 33 52
0 99 -6 120 -14z m-110 -71 c0 -25 -4 -30 -25 -30 -16 0 -26 6 -28 18 -6 30 6
49 30 45 18 -2 23 -9 23 -33z m-733 -644 c108 -7 132 -16 64 -26 -49 -8 -134
8 -176 32 -14 8 -16 11 -5 7 11 -4 64 -10 117 -13z m179 -285 c42 -13 98 -28
123 -31 l47 -7 -3 -46 c-2 -36 1 -47 13 -50 9 -1 20 7 26 20 10 20 12 21 18 6
11 -28 -26 -91 -65 -110 -45 -23 -176 -24 -251 -2 -71 21 -160 69 -194 104
-21 22 -25 32 -16 46 5 11 20 51 32 89 12 39 23 73 25 77 3 4 41 -11 87 -32
45 -21 116 -50 158 -64z m-331 -31 c0 -8 -4 -15 -9 -15 -13 0 -22 16 -14 24
11 11 23 6 23 -9z m1300 -185 c-8 -5 -22 -9 -30 -9 -10 0 -8 3 5 9 27 12 43
12 25 0z m191 -39 c16 -5 -8 -7 -70 -3 -91 5 -93 4 -83 -15 6 -11 18 -25 26
-33 16 -13 22 -50 9 -50 -11 1 -73 84 -73 98 0 6 6 13 13 16 17 8 148 -1 178
-13z m-1032 -50 c10 -7 2 -8 -25 -4 -31 4 -51 -2 -98 -26 -37 -20 -54 -25 -45
-15 33 40 134 67 168 45z m240 -24 l14 -22 -22 20 c-15 13 -21 15 -19 5 7 -31
-118 -63 -161 -41 -19 11 -31 7 -88 -24 -77 -43 -94 -41 -26 3 64 41 145 72
212 81 67 9 72 7 90 -22z m587 25 c-3 -5 6 -25 19 -45 l25 -36 -47 -32 c-26
-18 -78 -45 -115 -60 -62 -26 -72 -27 -135 -18 -139 19 -188 44 -259 132 l-21
26 71 6 c94 9 392 32 434 34 18 0 31 -3 28 -7z m344 -69 c0 -5 -42 -8 -92 -8
-51 0 -111 -3 -132 -7 -39 -7 -40 6 -1 15 33 8 225 8 225 0z m-111 -170 c42
-28 19 -31 -27 -3 -38 23 -72 75 -72 110 0 20 6 14 33 -30 17 -30 47 -65 66
-77z m-824 96 c-83 -12 -168 -42 -228 -81 -47 -30 -125 -49 -112 -27 14 22 -6
6 -25 -21 -16 -22 -19 -34 -11 -48 7 -14 3 -29 -19 -64 -23 -37 -33 -45 -52
-41 -19 4 -27 -2 -41 -31 -9 -20 -20 -54 -23 -76 -4 -22 -11 -43 -17 -47 -15
-9 0 72 25 128 18 42 24 49 49 49 35 0 63 45 53 85 -5 18 2 35 27 67 32 41 24
39 -30 -7 -15 -12 -10 -1 14 28 l38 48 32 -31 c17 -16 34 -30 39 -30 4 0 22
11 39 24 65 50 168 84 252 84 l50 0 -60 -9z m35 -38 c0 -5 3 -18 7 -28 6 -17
6 -17 -14 0 -11 9 -28 17 -39 17 -18 0 -99 -19 -149 -35 -11 -3 -6 2 10 11 49
29 185 55 185 35z m-592 -154 c2 -49 -1 -87 -6 -87 -15 0 -21 49 -9 80 9 22 7
33 -7 54 -17 27 -13 50 7 43 8 -2 13 -36 15 -90z m-43 -25 c1 -32 5 -76 9 -99
5 -27 5 -43 -1 -43 -14 0 -33 47 -27 65 10 24 -5 65 -26 73 -18 7 -18 9 6 40
15 18 29 30 33 27 3 -4 6 -32 6 -63z m-50 -82 c-5 -40 -4 -50 7 -50 19 0 38
-42 38 -80 0 -54 -19 -36 -54 53 -8 20 -22 37 -30 37 -20 0 -20 13 0 56 9 19
23 34 31 34 12 0 14 -9 8 -50z m-38 -72 c6 -7 13 -25 17 -40 3 -14 17 -40 31
-56 23 -28 34 -73 18 -72 -13 1 -87 97 -96 125 -14 42 7 72 30 43z m-392 -13
c55 0 115 4 133 8 59 16 33 -9 -28 -27 -67 -18 -140 -61 -140 -82 0 -25 22
-26 58 -2 61 41 110 53 211 52 89 -1 96 -2 110 -25 9 -13 39 -49 68 -80 29
-31 53 -62 53 -70 0 -8 11 -40 24 -72 l24 -57 -22 -5 c-11 -2 -88 -14 -171
-26 -177 -25 -262 -21 -344 17 -102 46 -114 67 -136 245 -8 68 -15 127 -15
132 0 4 17 4 38 0 20 -4 82 -8 137 -8z m1595 -213 l22 -18 -77 -73 c-125 -119
-235 -152 -317 -96 -39 27 -98 130 -82 144 5 5 47 16 94 25 209 40 325 46 360
18z"/>
<path d="M1703 2450 c-97 -20 -143 -66 -143 -142 0 -27 5 -58 11 -70 15 -28
69 -48 136 -49 32 0 81 -4 108 -9 129 -24 138 -24 164 3 29 32 43 100 31 153
-22 97 -151 144 -307 114z m206 -51 c46 -16 85 -87 78 -141 -8 -58 -34 -81
-81 -73 l-37 7 20 22 c75 80 23 186 -93 186 -36 0 -52 -6 -81 -31 -29 -26 -35
-38 -35 -71 0 -21 5 -48 10 -59 10 -17 7 -19 -28 -19 -47 0 -70 16 -78 55 -7
39 28 93 76 117 41 21 197 25 249 7z m-114 -59 c9 -15 -14 -50 -33 -50 -39 0
-57 51 -25 69 18 9 46 0 58 -19z"/>
<path d="M2152 2210 c0 -14 2 -19 5 -12 2 6 2 18 0 25 -3 6 -5 1 -5 -13z"/>
<path d="M2190 2035 c-32 -34 -80 -41 -148 -22 -31 9 -59 14 -61 11 -10 -9 35
-45 68 -54 79 -22 140 0 162 58 13 34 7 36 -21 7z"/>
<path d="M1560 2010 c0 -5 7 -10 15 -10 8 0 15 5 15 10 0 6 -7 10 -15 10 -8 0
-15 -4 -15 -10z"/>
<path d="M2520 2010 c0 -5 5 -10 10 -10 6 0 10 5 10 10 0 6 -4 10 -10 10 -5 0
-10 -4 -10 -10z"/>
<path d="M1690 1990 c0 -5 5 -10 10 -10 6 0 10 5 10 10 0 6 -4 10 -10 10 -5 0
-10 -4 -10 -10z"/>
<path d="M1645 1950 c-3 -5 1 -10 10 -10 9 0 13 5 10 10 -3 6 -8 10 -10 10 -2
0 -7 -4 -10 -10z"/>
<path d="M2105 1810 c-116 -10 -190 -28 -211 -51 -17 -19 -17 -20 2 -39 59
-60 281 -88 341 -44 15 11 31 35 35 52 5 18 13 32 18 32 20 0 9 20 -17 33 -41
21 -78 24 -168 17z m129 -21 c36 -10 38 -12 20 -23 -21 -12 -238 -16 -250 -3
-12 12 -2 16 66 25 91 13 119 13 164 1z"/>
<path d="M2075 1600 c27 -12 77 -12 95 0 10 7 -5 10 -50 9 -45 0 -59 -3 -45
-9z"/>
<path d="M2570 920 c-12 -8 -9 -10 13 -10 15 0 27 5 27 10 0 13 -20 13 -40 0z"/>
</g>
</svg>
