<?xml version="1.0" standalone="no"?>
<!DOCTYPE svg PUBLIC "-//W3C//DTD SVG 20010904//EN"
 "http://www.w3.org/TR/2001/REC-SVG-20010904/DTD/svg10.dtd">
<svg version="1.0" xmlns="http://www.w3.org/2000/svg"
 width="398.000000pt" height="398.000000pt" viewBox="0 0 398.000000 398.000000"
 preserveAspectRatio="xMidYMid meet">
<metadata>
Created by potrace 1.11, written by Peter Selinger 2001-2013
</metadata>
<g transform="translate(0.000000,398.000000) scale(0.100000,-0.100000)"
fill="#000000" stroke="none">
<path d="M281 3397 c-48 -24 -48 -25 18 -388 95 -523 135 -700 161 -721 45
-36 120 -9 120 42 0 12 -16 91 -35 177 -19 86 -35 168 -35 182 0 49 38 108 84
130 62 31 84 27 130 -22 55 -57 101 -175 117 -296 13 -105 34 -141 78 -141 16
0 40 9 55 21 23 18 26 27 26 85 0 129 -54 314 -121 411 -82 119 -233 145 -364
62 -26 -16 -48 -29 -50 -27 -1 2 -19 102 -40 223 -21 121 -40 225 -42 233 -5
12 -54 42 -70 42 -4 0 -19 -6 -32 -13z"/>
<path d="M1048 3355 c-81 -45 -54 -165 36 -165 39 0 55 17 76 84 11 34 10 41
-7 65 -24 31 -66 37 -105 16z"/>
<path d="M1081 3054 c-12 -15 -21 -37 -21 -50 0 -29 87 -488 101 -532 26 -80
139 -63 139 21 0 33 -93 520 -104 548 -8 18 -48 39 -76 39 -10 0 -28 -12 -39
-26z"/>
<path d="M2330 3021 c10 -19 8 -21 -23 -21 -101 0 -234 -50 -307 -116 -24 -22
-57 -68 -77 -108 -19 -39 -46 -86 -60 -104 -75 -100 -87 -216 -38 -356 25 -72
26 -83 16 -135 -83 -414 -87 -501 -26 -621 79 -156 191 -303 266 -347 16 -9
29 -23 29 -30 0 -22 -22 -68 -27 -55 -11 28 -300 -1 -372 -37 -22 -11 -74 -60
-118 -108 -110 -123 -255 -273 -264 -273 -4 0 -38 51 -75 113 -37 61 -86 140
-110 174 l-43 62 30 70 c16 38 32 97 36 132 5 47 14 74 40 111 18 28 33 56 33
62 0 24 -38 49 -64 42 -35 -9 -87 -55 -102 -91 -25 -60 -39 -61 -63 -5 -22 51
-45 147 -56 233 -10 76 -72 103 -104 45 -13 -23 -13 -39 0 -138 l15 -113 -20
25 c-12 14 -42 60 -68 101 -52 85 -83 103 -118 72 -34 -30 -23 -68 56 -190 18
-30 34 -57 34 -60 0 -4 -36 19 -79 49 -43 31 -88 56 -98 56 -23 0 -53 -30 -53
-52 0 -15 59 -74 130 -131 38 -31 35 -31 -61 -1 -79 24 -110 7 -95 -50 5 -19
25 -32 98 -62 86 -36 94 -42 137 -101 25 -35 66 -77 91 -93 l47 -30 22 -102
c30 -135 124 -424 167 -515 40 -85 118 -174 177 -202 103 -50 191 -14 355 143
89 86 101 82 79 -25 -9 -41 -29 -111 -46 -156 l-30 -83 624 0 c615 0 624 0
630 20 8 26 21 26 28 0 3 -12 14 -20 26 -20 18 0 20 4 15 28 -4 15 -11 37 -15
50 -8 21 -7 22 59 22 77 0 176 21 231 49 l38 20 7 -52 c3 -29 6 -67 6 -84 0
-27 4 -33 21 -33 21 0 22 3 16 97 -5 93 -5 97 19 115 30 24 30 35 0 135 -14
45 -36 141 -51 213 -15 72 -33 154 -41 182 -20 67 -81 132 -147 157 -29 10
-117 49 -196 85 -80 36 -150 65 -155 65 -32 -4 -36 3 -36 59 0 73 8 102 29
102 28 0 213 96 280 145 72 53 106 112 124 221 l11 65 43 -7 c75 -11 137 47
206 193 28 60 32 78 32 158 1 50 5 109 9 132 7 35 13 42 35 45 25 3 26 5 29
83 6 150 -28 264 -112 380 -42 58 -43 65 -16 65 11 0 20 3 20 6 0 7 -124 147
-175 196 -53 53 -152 83 -240 75 -53 -5 -65 -3 -80 13 -9 10 -40 28 -68 40
-49 21 -60 22 -172 15 -157 -11 -179 -11 -248 -2 -57 8 -58 8 -47 -12z m64
-546 c35 -83 99 -135 165 -135 37 0 47 26 37 104 l-6 53 56 -8 c37 -5 65 -15
80 -30 22 -21 64 -114 64 -142 0 -9 -29 -11 -115 -8 -94 2 -120 0 -140 -13
-14 -9 -25 -20 -25 -24 0 -4 44 -13 98 -19 108 -13 198 -41 254 -78 38 -26 47
-20 27 16 -7 15 -7 24 2 35 10 12 17 9 50 -21 22 -19 46 -35 54 -35 18 0 19
-22 5 -104 -13 -78 -32 -307 -27 -313 9 -8 81 28 123 62 33 28 51 35 86 35 59
1 106 26 146 79 30 40 33 42 26 15 -13 -54 -44 -125 -78 -178 -55 -86 -99
-105 -149 -66 -38 30 -61 27 -54 -8 8 -39 -28 -196 -54 -239 -24 -39 -135
-116 -236 -164 -35 -17 -107 -42 -161 -56 -85 -23 -118 -26 -262 -27 -158 -1
-167 0 -220 25 -70 33 -128 91 -201 202 -139 211 -147 251 -95 522 19 99 34
166 35 149 2 -51 28 -73 111 -94 41 -10 105 -31 143 -46 55 -22 71 -25 92 -16
33 15 56 64 62 131 4 47 1 61 -19 91 -35 51 -97 82 -178 88 -92 6 -134 -3
-170 -39 -16 -17 -30 -25 -30 -19 0 6 10 65 22 130 18 102 24 120 44 129 17 8
24 6 28 -5 10 -27 7 -51 -9 -64 -9 -7 -25 -25 -35 -40 l-19 -27 57 13 c64 16
130 11 240 -16 71 -18 72 -18 72 1 0 29 -103 82 -202 103 l-27 6 15 42 c28 79
84 123 186 144 40 8 80 22 88 30 13 13 16 6 22 -60 4 -40 14 -90 22 -111z
m-365 -284 c-53 -54 -30 -136 46 -161 92 -30 176 53 134 132 -9 16 -8 19 3 16
7 -2 21 -20 31 -39 25 -48 18 -122 -15 -156 l-25 -25 -60 26 c-34 14 -94 34
-134 46 -72 19 -109 45 -109 77 0 51 69 113 127 113 l31 0 -29 -29z m79 -34
c-5 -37 -67 -33 -68 5 0 4 7 14 16 22 21 22 56 3 52 -27z m-1183 -564 c10 -85
34 -181 60 -237 l23 -48 -31 -44 c-32 -46 -44 -123 -19 -131 8 -3 12 7 12 32
0 47 21 85 69 127 22 18 41 40 43 47 7 29 81 101 105 101 26 0 30 -12 8 -30
-34 -28 -58 -83 -66 -155 -6 -55 -18 -93 -48 -154 -23 -44 -41 -83 -41 -87 0
-3 9 -4 19 -1 24 6 43 -21 190 -265 146 -244 181 -325 181 -420 0 -32 3 -38
21 -38 20 0 21 4 17 69 -2 46 0 67 7 63 5 -3 28 -18 50 -33 22 -14 51 -30 64
-34 23 -7 23 -7 -15 -47 -45 -46 -148 -129 -183 -147 -91 -49 -218 24 -289
166 -70 138 -203 595 -176 601 29 7 12 28 -34 45 -65 22 -95 47 -142 116 -36
54 -46 61 -127 96 -98 41 -112 50 -97 65 6 6 45 -2 107 -21 93 -29 127 -32
127 -9 0 5 -47 48 -104 96 -68 56 -103 91 -99 100 3 8 9 14 13 14 5 0 53 -31
108 -70 156 -110 167 -96 61 81 -44 74 -69 125 -65 135 10 27 29 11 82 -72 67
-103 117 -160 134 -149 13 8 11 44 -9 199 -11 77 -7 96 19 96 15 0 20 -11 25
-57z m1705 -512 l0 -110 -77 -38 c-72 -35 -83 -38 -184 -41 -181 -7 -283 41
-296 137 -5 38 -4 43 10 38 22 -8 44 16 58 64 l12 39 51 -7 c74 -11 271 -5
346 11 36 7 68 14 73 15 4 0 7 -48 7 -108z"/>
<path d="M2520 2143 c-55 -29 -80 -75 -80 -147 1 -88 37 -124 114 -112 22 4
91 2 154 -5 108 -12 114 -11 140 8 34 25 54 91 42 135 -22 76 -118 127 -255
135 -64 3 -87 1 -115 -14z m83 -38 c-12 -8 -27 -30 -33 -49 -15 -46 7 -98 52
-126 l33 -20 -82 0 c-73 0 -83 2 -97 22 -50 70 22 188 114 188 33 0 34 0 13
-15z m75 -17 c30 -30 -11 -85 -44 -57 -14 12 -19 51 -7 62 10 11 38 8 51 -5z
m182 -96 c7 -26 5 -42 -5 -62 -17 -33 -43 -41 -102 -33 l-43 6 39 19 c47 23
64 54 59 107 l-3 40 22 -21 c13 -12 27 -37 33 -56z"/>
<path d="M2200 1810 c0 -12 16 -38 35 -57 34 -34 38 -35 96 -31 45 3 65 10 82
27 l22 22 -52 -7 c-74 -9 -121 2 -155 38 -26 28 -28 29 -28 8z"/>
<path d="M2685 1680 c3 -5 8 -10 11 -10 2 0 4 5 4 10 0 6 -5 10 -11 10 -5 0
-7 -4 -4 -10z"/>
<path d="M2810 1680 c0 -5 5 -10 10 -10 6 0 10 5 10 10 0 6 -4 10 -10 10 -5 0
-10 -4 -10 -10z"/>
<path d="M1982 1668 c-14 -14 -16 -68 -2 -68 6 0 10 7 10 15 0 28 20 15 50
-33 37 -61 99 -96 206 -118 113 -24 188 -14 292 36 46 22 86 40 89 40 2 0 1
-9 -2 -20 -4 -11 -2 -20 4 -20 6 0 14 12 17 27 6 20 2 31 -16 45 -23 19 -60
25 -60 9 0 -5 10 -12 23 -15 l22 -7 -25 -10 c-35 -15 -135 -4 -292 31 -73 16
-158 32 -188 36 -62 8 -114 30 -104 45 3 5 14 7 25 4 11 -4 19 -2 19 4 0 15
-53 14 -68 -1z m323 -109 c44 -11 116 -24 160 -28 l80 -8 -50 -23 c-122 -57
-356 -21 -424 66 -12 15 -21 30 -21 34 0 10 153 -15 255 -41z"/>
<path d="M2720 1630 c0 -5 5 -10 10 -10 6 0 10 5 10 10 0 6 -4 10 -10 10 -5 0
-10 -4 -10 -10z"/>
</g>
</svg>
